<?xml version="1.0" encoding="UTF-8"?>
<svg id="Livello_2" data-name="Livello 2" xmlns="http://www.w3.org/2000/svg" viewBox="0 0 282.74 338.24">
  <defs>
    <style>
      .cls-1 {
        fill: #fff;
        stroke-width: 0px;
      }
    </style>
  </defs>
  <g id="Livello_1-2" data-name="Livello 1">
    <path class="cls-1" d="M282.74,30.54V0H29.9v30.54h139.42L29.9,216.92h37.38s68.1-91.05,68.1-91.05c48.99,4.09,87.55,43.35,87.55,91.05,0,50.41-43.06,91.42-96,91.42s-97.03-41.01-97.03-91.42H0c0,66.9,57.51,121.32,126.93,121.32s125.9-54.43,125.9-121.32c0-57.74-40.85-106.19-97.01-118.37l50.96-68.01h75.96ZM126.93,125.5c1.06,0,2.11.04,3.16.08l-64.98,86.87-26.36.02,65.05-86.97h23.13ZM278.32,4.42v21.71h-68.23l16.26-21.71h51.97Z"/>
  </g>
</svg>